<?xml version="1.0" standalone="no"?><!DOCTYPE svg PUBLIC "-//W3C//DTD SVG 1.1//EN" "http://www.w3.org/Graphics/SVG/1.1/DTD/svg11.dtd"><svg t="1776837758411" class="icon" viewBox="0 0 1024 1024" version="1.1" xmlns="http://www.w3.org/2000/svg" p-id="1637" width="256" height="256" xmlns:xlink="http://www.w3.org/1999/xlink"><path d="M256 85.333333h341.333333v85.333334h-85.333333v85.333333h-85.333333V170.666667H256V85.333333zM170.666667 256V170.666667h85.333333v85.333333H170.666667z m0 426.666667H85.333333V256h85.333334v426.666667z m85.333333 85.333333H170.666667v-85.333333h85.333333v85.333333z m85.333333 85.333333H256v-85.333333h85.333333v85.333333z m426.666667 0v85.333334H341.333333v-85.333334h426.666667z m85.333333-85.333333v85.333333h-85.333333v-85.333333h85.333333z m-85.333333-170.666667h85.333333v170.666667h85.333334v-341.333333h-85.333334v85.333333h-85.333333v85.333333z m-256 0v85.333334h256v-85.333334h-256z m-85.333333-85.333333h85.333333v85.333333h-85.333333v-85.333333z m0 0V256H341.333333v256h85.333334z" p-id="1638"></path></svg>