<?xml version="1.0" standalone="no"?><!DOCTYPE svg PUBLIC "-//W3C//DTD SVG 1.1//EN" "http://www.w3.org/Graphics/SVG/1.1/DTD/svg11.dtd"><svg t="1776838237040" class="icon" viewBox="0 0 1024 1024" version="1.1" xmlns="http://www.w3.org/2000/svg" p-id="12834" xmlns:xlink="http://www.w3.org/1999/xlink" width="256" height="256"><path d="M554.666667 128h-85.333334v85.333333h85.333334V128z m170.666666 85.333333h85.333334v85.333334h-85.333334V213.333333z m-256 256h85.333334v85.333334h-85.333334v-85.333334z m-341.333333 0h85.333333v85.333334H128v-85.333334z m768 0h-85.333333v85.333334h85.333333v-85.333334zM213.333333 213.333333h85.333334v85.333334H213.333333V213.333333z m597.333334 597.333334h-85.333334v-85.333334h85.333334v85.333334z m-341.333334 85.333333h85.333334v-85.333333h-85.333334v85.333333z m-170.666666-85.333333H213.333333v-85.333334h85.333334v85.333334zM384 298.666667h256v85.333333H384V298.666667z m0 341.333333H298.666667V384h85.333333v256z m0 0v85.333333h256v-85.333333h85.333333V384h-85.333333v256H384z" p-id="12835"></path></svg>